<mxfile host="app.diagrams.net" modified="2023-05-03T00:13:39.665Z" agent="Mozilla/5.0 (Windows NT 10.0; Win64; x64) AppleWebKit/537.36 (KHTML, like Gecko) Chrome/112.0.0.0 Safari/537.36" version="21.1.9" etag="6HNUwvQqQ1mNv6TluJST" type="github">
  <diagram name="PÃ¡gina-1" id="z4HRKTw3MSUHEGrCa4cY">
    <mxGraphModel>
      <root>
        <mxCell id="0" />
        <mxCell id="1" parent="0" />
      </root>
    </mxGraphModel>
  </diagram>
</mxfile>
